<?xml version="1.0" encoding="UTF-8"?>
<svg width="19px" height="19px" viewBox="0 0 19 19" version="1.1" xmlns="http://www.w3.org/2000/svg" xmlns:xlink="http://www.w3.org/1999/xlink">
    <!-- Generator: Sketch 50 (54983) - http://www.bohemiancoding.com/sketch -->
    <title>add-photo</title>
    <desc>Created with Sketch.</desc>
    <defs></defs>
    <g id="Page-1" stroke="none" stroke-width="1" fill="none" fill-rule="evenodd">
        <g id="baseline-add_photo_alternate-24px" transform="translate(-3.000000, -2.000000)">
            <path d="M19,7.00347464 L19,9.99555247 C19,9.99555247 17.01,10.0055594 17,9.99555247 L17,7.00347464 L14,7.00347464 C14,7.00347464 14.01,5.01209173 14,5.00208478 L17,5.00208478 L17,2 L19,2 L19,5.00208478 L22,5.00208478 L22,7.00347464 L19,7.00347464 Z M16,11 L16,8 L13,8 L13,5 L5,5 C3.9,5 3,5.9 3,7 L3,19 C3,20.1 3.9,21 5,21 L17,21 C18.1,21 19,20.1 19,19 L19,11 L16,11 Z M5,19 L8,15 L10,18 L13,14 L17,19 L5,19 Z" id="Shape" fill="#9CA5B9" fill-rule="nonzero"></path>
            <polygon id="Shape" points="0 0 24 0 24 14.3164062 24 24 0 24"></polygon>
        </g>
    </g>
</svg>