<?xml version="1.0" standalone="no"?>
<!DOCTYPE svg PUBLIC "-//W3C//DTD SVG 20010904//EN"
 "http://www.w3.org/TR/2001/REC-SVG-20010904/DTD/svg10.dtd">
<svg version="1.0" xmlns="http://www.w3.org/2000/svg"
 width="192.000000pt" height="192.000000pt" viewBox="0 0 192.000000 192.000000"
 preserveAspectRatio="xMidYMid meet">
<metadata>
Created by potrace 1.11, written by Peter Selinger 2001-2013
</metadata>
<g transform="translate(0.000000,192.000000) scale(0.100000,-0.100000)"
fill="#000000" stroke="none">
<path d="M451 1644 c-37 -16 -63 -41 -78 -75 -8 -18 -11 -205 -10 -620 2 -668
-2 -628 79 -670 37 -19 57 -20 531 -17 542 3 519 1 564 66 17 25 18 63 18 628
0 664 3 635 -64 677 -36 22 -38 22 -523 23 -376 1 -493 -2 -517 -12z m435
-399 c0 -148 -1 -273 -3 -277 -2 -4 -42 16 -89 43 -95 54 -97 55 -176 8 -26
-16 -62 -35 -78 -44 l-30 -16 0 279 0 279 188 -1 187 -1 1 -270z"/>
</g>
</svg>
